<mxfile host="app.diagrams.net" modified="2023-09-09T12:55:31.849Z" agent="Mozilla/5.0 (Macintosh; Intel Mac OS X 10_15_7) AppleWebKit/537.36 (KHTML, like Gecko) Chrome/116.0.0.0 Safari/537.36" version="21.7.4" etag="YJp3jgXYoT5OxPQo5wnY" type="github">
  <diagram name="Page-1" id="C6MQ5mS3NwSN0RwU6cc0">
    <mxGraphModel>
      <root>
        <mxCell id="0" />
        <mxCell id="1" parent="0" />
        <mxCell id="2" value="Start" style="whiteSpace=wrap;strokeWidth=2;" vertex="1" parent="1">
          <mxGeometry y="277" width="50" height="34" as="geometry" />
        </mxCell>
        <mxCell id="3" value="Display random English word" style="whiteSpace=wrap;strokeWidth=2;" vertex="1" parent="1">
          <mxGeometry x="100" y="277" width="220" height="34" as="geometry" />
        </mxCell>
        <mxCell id="4" value="User inputs Turkish word" style="rounded=1;absoluteArcSize=1;arcSize=14;whiteSpace=wrap;strokeWidth=2;" vertex="1" parent="1">
          <mxGeometry x="370" y="113" width="190" height="34" as="geometry" />
        </mxCell>
        <mxCell id="5" value="Is Turkish translation correct?" style="rhombus;strokeWidth=2;whiteSpace=wrap;" vertex="1" parent="1">
          <mxGeometry x="610" width="259" height="259" as="geometry" />
        </mxCell>
        <mxCell id="6" value="Display correct message and increase score" style="whiteSpace=wrap;strokeWidth=2;" vertex="1" parent="1">
          <mxGeometry x="951" y="195" width="326" height="34" as="geometry" />
        </mxCell>
        <mxCell id="7" value="Display incorrect message and decrease score" style="whiteSpace=wrap;strokeWidth=2;" vertex="1" parent="1">
          <mxGeometry x="942" y="334" width="343" height="34" as="geometry" />
        </mxCell>
        <mxCell id="8" value="Is score less than 0?" style="rhombus;strokeWidth=2;whiteSpace=wrap;" vertex="1" parent="1">
          <mxGeometry x="1335" y="281" width="190" height="190" as="geometry" />
        </mxCell>
        <mxCell id="9" value="Display game over message and end" style="whiteSpace=wrap;strokeWidth=2;" vertex="1" parent="1">
          <mxGeometry x="1597" y="359" width="272" height="34" as="geometry" />
        </mxCell>
        <mxCell id="10" value="" style="curved=1;startArrow=none;endArrow=block;exitX=1.00015625;exitY=0.4997702205882353;entryX=0.000035511363636363635;entryY=0.4997702205882353;" edge="1" parent="1" source="2" target="3">
          <mxGeometry relative="1" as="geometry">
            <Array as="points" />
          </mxGeometry>
        </mxCell>
        <mxCell id="11" value="" style="curved=1;startArrow=none;endArrow=block;exitX=0.5621675790281528;exitY=0.007123161764705882;entryX=-0.0006990131578947368;entryY=0.48517922794117646;" edge="1" parent="1" source="3" target="4">
          <mxGeometry relative="1" as="geometry">
            <Array as="points">
              <mxPoint x="345" y="129" />
            </Array>
          </mxGeometry>
        </mxCell>
        <mxCell id="12" value="" style="curved=1;startArrow=none;endArrow=block;exitX=1.001439144736842;exitY=0.48517922794117646;entryX=0.0010557432432432433;entryY=0.49998491795366795;" edge="1" parent="1" source="4" target="5">
          <mxGeometry relative="1" as="geometry">
            <Array as="points" />
          </mxGeometry>
        </mxCell>
        <mxCell id="13" value="Yes" style="curved=1;startArrow=none;endArrow=block;exitX=1.001025579150579;exitY=0.49998491795366795;entryX=0.36881376070006594;entryY=-0.00017233455882352942;" edge="1" parent="1" source="5" target="6">
          <mxGeometry relative="1" as="geometry">
            <Array as="points">
              <mxPoint x="906" y="129" />
            </Array>
          </mxGeometry>
        </mxCell>
        <mxCell id="14" value="No" style="curved=1;startArrow=none;endArrow=block;exitX=0.8764073691383577;exitY=0.9999698359073359;entryX=-0.0002505466472303207;entryY=0.4813878676470588;" edge="1" parent="1" source="5" target="7">
          <mxGeometry relative="1" as="geometry">
            <Array as="points">
              <mxPoint x="906" y="350" />
            </Array>
          </mxGeometry>
        </mxCell>
        <mxCell id="15" value="" style="curved=1;startArrow=none;endArrow=block;exitX=1.000797193877551;exitY=0.4813878676470588;entryX=0.0014391447368421052;entryY=0.3935167658447471;" edge="1" parent="1" source="7" target="8">
          <mxGeometry relative="1" as="geometry">
            <Array as="points">
              <mxPoint x="1310" y="350" />
            </Array>
          </mxGeometry>
        </mxCell>
        <mxCell id="16" value="Yes" style="curved=1;startArrow=none;endArrow=block;exitX=0.9990131578947369;exitY=0.5012746710526316;entryX=0.001694623161764706;entryY=0.5071231617647058;" edge="1" parent="1" source="8" target="9">
          <mxGeometry relative="1" as="geometry">
            <Array as="points" />
          </mxGeometry>
        </mxCell>
        <mxCell id="17" value="No" style="curved=1;startArrow=none;endArrow=block;exitX=0.0014391447368421052;exitY=0.6090325762605161;entryX=0.5947268293483973;entryY=0.9924172794117647;" edge="1" parent="1" source="8" target="3">
          <mxGeometry relative="1" as="geometry">
            <Array as="points">
              <mxPoint x="1310" y="402" />
              <mxPoint x="345" y="402" />
            </Array>
          </mxGeometry>
        </mxCell>
        <mxCell id="18" value="" style="curved=1;startArrow=none;endArrow=block;exitX=0.36881376070006594;exitY=0.9851217830882353;entryX=0.9993963068181818;entryY=0.4997702205882353;" edge="1" parent="1" source="6" target="3">
          <mxGeometry relative="1" as="geometry">
            <Array as="points">
              <mxPoint x="906" y="294" />
            </Array>
          </mxGeometry>
        </mxCell>
      </root>
    </mxGraphModel>
  </diagram>
</mxfile>
